<svg width="62" height="48" viewBox="0 0 62 48" fill="none" xmlns="http://www.w3.org/2000/svg">
<g clip-path="url(#clip0_215_481)">
<path d="M7.53838 6.27294C7.42473 3.00941 9.96744 0 13.4044 0H48.6224C52.0593 0 54.602 3.00941 54.4884 6.27294C54.3792 9.40788 54.521 13.4688 55.543 16.78C56.5683 20.1014 58.2972 22.2008 61.1289 22.4706V25.5294C58.2972 25.7992 56.5683 27.8986 55.543 31.22C54.521 34.5312 54.3792 38.5921 54.4884 41.7272C54.602 44.9906 52.0593 48 48.6224 48H13.4044C9.96744 48 7.42473 44.9906 7.5385 41.7272C7.64755 38.5921 7.50579 34.5312 6.48367 31.22C5.4585 27.8986 3.72532 25.7992 0.893555 25.5294V22.4706C3.7252 22.2008 5.4585 20.1014 6.48367 16.78C7.50579 13.4688 7.64755 9.40788 7.53838 6.27294Z" fill="url(#paint0_linear_215_481)"/>
<g filter="url(#filter0_d_215_481)">
<path d="M32.3176 36.8234C37.8819 36.8234 41.235 34.0989 41.235 29.6051C41.235 26.2083 38.8425 23.7491 35.2901 23.3598V23.2183C37.9001 22.7937 39.9482 20.3699 39.9482 17.6631C39.9482 13.8063 36.9032 11.2939 32.2632 11.2939H21.8232V36.8234H32.3176ZM25.8832 14.5316H31.2845C34.2208 14.5316 35.8882 15.8408 35.8882 18.2115C35.8882 20.7415 33.9489 22.1568 30.4327 22.1568H25.8832V14.5316ZM25.8832 33.5858V25.1822H31.2482C35.0907 25.1822 37.0844 26.5975 37.0844 29.3575C37.0844 32.1174 35.1451 33.5858 31.4838 33.5858H25.8832Z" fill="url(#paint1_linear_215_481)"/>
<path d="M32.3176 36.8234C37.8819 36.8234 41.235 34.0989 41.235 29.6051C41.235 26.2083 38.8425 23.7491 35.2901 23.3598V23.2183C37.9001 22.7937 39.9482 20.3699 39.9482 17.6631C39.9482 13.8063 36.9032 11.2939 32.2632 11.2939H21.8232V36.8234H32.3176ZM25.8832 14.5316H31.2845C34.2208 14.5316 35.8882 15.8408 35.8882 18.2115C35.8882 20.7415 33.9489 22.1568 30.4327 22.1568H25.8832V14.5316ZM25.8832 33.5858V25.1822H31.2482C35.0907 25.1822 37.0844 26.5975 37.0844 29.3575C37.0844 32.1174 35.1451 33.5858 31.4838 33.5858H25.8832Z" stroke="white"/>
</g>
</g>
<defs>
<filter id="filter0_d_215_481" x="5.32324" y="-1.20605" width="52.4121" height="58.5293" filterUnits="userSpaceOnUse" color-interpolation-filters="sRGB">
<feFlood flood-opacity="0" result="BackgroundImageFix"/>
<feColorMatrix in="SourceAlpha" type="matrix" values="0 0 0 0 0 0 0 0 0 0 0 0 0 0 0 0 0 0 127 0" result="hardAlpha"/>
<feOffset dy="4"/>
<feGaussianBlur stdDeviation="8"/>
<feColorMatrix type="matrix" values="0 0 0 0 0 0 0 0 0 0 0 0 0 0 0 0 0 0 0.15 0"/>
<feBlend mode="normal" in2="BackgroundImageFix" result="effect1_dropShadow_215_481"/>
<feBlend mode="normal" in="SourceGraphic" in2="effect1_dropShadow_215_481" result="shape"/>
</filter>
<linearGradient id="paint0_linear_215_481" x1="9.84403" y1="1.27035" x2="62.4794" y2="43.0524" gradientUnits="userSpaceOnUse">
<stop stop-color="#9013FE"/>
<stop offset="1" stop-color="#6610F2"/>
</linearGradient>
<linearGradient id="paint1_linear_215_481" x1="23.6594" y1="12.9743" x2="35.4248" y2="32.8722" gradientUnits="userSpaceOnUse">
<stop stop-color="white"/>
<stop offset="1" stop-color="#F1E5FC"/>
</linearGradient>
<clipPath id="clip0_215_481">
<rect width="60.2353" height="48" fill="white" transform="translate(0.893555)"/>
</clipPath>
</defs>
</svg>
