<svg width="44" height="48" viewBox="0 0 44 48" fill="none" xmlns="http://www.w3.org/2000/svg">
<path d="M43.8937 0H0.946289L4.73576 42.9474L22.42 48L40.1042 42.9474L43.8937 0Z" fill="#0277BD"/>
<path d="M22.4199 4.02637V44.3211L36.5673 40.279L39.7252 4.02637H22.4199Z" fill="#039BE5"/>
<path d="M33.9147 9.8418H22.4199V14.8944H28.6094L28.2304 19.9471H22.4199V24.9997H27.9778L27.5989 30.6839L22.4199 32.4523V37.7576L32.3989 34.4734L33.2831 19.9471L33.9147 9.8418Z" fill="white"/>
<path d="M22.4199 9.8418V14.8944H11.1778L10.7988 9.8418H22.4199ZM16.6094 19.9471L16.862 24.9997H22.4199V19.9471H16.6094ZM17.1146 27.526H12.062L12.4409 34.4734L22.4199 37.7576V32.4523L17.2409 30.6839L17.1146 27.526Z" fill="#EEEEEE"/>
</svg>
