<svg width="43" height="48" viewBox="0 0 43 48" fill="none" xmlns="http://www.w3.org/2000/svg">
<path d="M42.9464 0H-0.000976562L3.7885 42.9474L21.4727 48L39.1569 42.9474L42.9464 0Z" fill="#E65100"/>
<path d="M21.4727 4.02637V44.3211L35.62 40.279L38.7779 4.02637H21.4727Z" fill="#FF6D00"/>
<path d="M21.4727 24.9997V19.9471H32.3358L31.4516 34.4734L21.4727 37.7576V32.4523L26.6516 30.6839L27.0306 24.9997H21.4727ZM32.7148 14.8944L33.0937 9.8418H21.4727V14.8944H32.7148Z" fill="white"/>
<path d="M21.4723 32.4523V37.7576L11.4933 34.4734L10.9881 27.526H16.0407L16.2933 30.6839L21.4723 32.4523ZM15.2828 14.8944H21.4723V9.8418H9.97754L10.8618 24.9997H21.4723V19.9471H15.6618L15.2828 14.8944Z" fill="#EEEEEE"/>
</svg>
