<svg width="96" height="96" viewBox="0 0 96 96" fill="none" xmlns="http://www.w3.org/2000/svg">
<path d="M0.000976562 96V0H96.001V96H0.000976562Z" fill="#FFD600"/>
<path d="M62.7689 55.192C64.6142 58.1893 66.6196 61.0613 70.8676 61.0613C74.4356 61.0613 76.3076 59.288 76.3076 56.8347C76.3076 53.8987 74.3716 52.856 70.4462 51.1467L68.2942 50.2293C62.0836 47.5947 57.9529 44.2933 57.9529 37.32C57.9529 30.8933 62.8729 26.0027 70.5609 26.0027C76.0356 26.0027 79.9689 27.8987 82.8062 32.864L76.1022 37.1493C74.6276 34.5147 73.0329 33.4773 70.5609 33.4773C68.0382 33.4773 66.4409 35.0693 66.4409 37.1493C66.4409 39.72 68.0409 40.76 71.7342 42.352L73.8862 43.2693C81.2062 46.3867 85.3342 49.5707 85.3342 56.728C85.3342 64.44 79.2436 68.6667 71.0676 68.6667C63.0703 68.6667 58.5289 64.6533 56.0009 59.6853L62.7689 55.192ZM31.8729 55.4107C33.2222 57.8267 35.2729 59.6853 38.2222 59.6853C41.0436 59.6853 42.6676 58.5707 42.6676 54.2373V26H51.5556V55.6027C51.5556 64.5813 46.3476 68.6667 38.7422 68.6667C31.8702 68.6667 26.9102 64.0107 24.8889 59.6853L31.8729 55.4107Z" fill="#000001"/>
</svg>
