<svg width="90" height="96" viewBox="0 0 90 96" fill="none" xmlns="http://www.w3.org/2000/svg">
<path fill-rule="evenodd" clip-rule="evenodd" d="M75.8574 62.9399C76.2377 62.7216 76.5538 62.407 76.7741 62.0279C76.9944 61.6488 77.111 61.2184 77.1124 60.7799L77.1574 46.3124C77.1588 45.874 77.2755 45.4436 77.4958 45.0644C77.7161 44.6853 78.0322 44.3708 78.4124 44.1524L86.2549 39.6474C86.635 39.4291 87.0658 39.3146 87.5042 39.3154C87.9425 39.3161 88.3729 39.4321 88.7523 39.6516C89.1316 39.8712 89.4466 40.1866 89.6656 40.5663C89.8846 40.946 89.9999 41.3766 89.9999 41.8149V68.1174C89.9999 68.5572 89.8838 68.9891 89.6634 69.3697C89.4431 69.7502 89.1263 70.0659 88.7449 70.2849L59.1474 87.2849C58.7694 87.502 58.3412 87.6164 57.9053 87.6168C57.4694 87.6172 57.0409 87.5037 56.6624 87.2874L33.4349 74.0024C33.0523 73.7839 32.7342 73.468 32.513 73.087C32.2917 72.7059 32.1751 72.2731 32.1749 71.8324V58.5699C32.1749 58.5549 32.1924 58.5449 32.2074 58.5524C32.2199 58.5599 32.2374 58.5524 32.2374 58.5349V58.5199C32.2374 58.5099 32.2424 58.4999 32.2524 58.4949L51.3824 47.5049C51.3999 47.4949 51.3924 47.4674 51.3724 47.4674C51.3671 47.4674 51.362 47.4653 51.3583 47.4616C51.3545 47.4578 51.3524 47.4527 51.3524 47.4474L51.3899 34.4449C51.3917 34.0052 51.2775 33.5729 51.0587 33.1914C50.84 32.81 50.5246 32.493 50.1443 32.2724C49.7639 32.0518 49.3321 31.9354 48.8924 31.935C48.4527 31.9345 48.0207 32.0501 47.6399 32.2699L33.4224 40.4624C33.043 40.6809 32.6128 40.7959 32.1749 40.7959C31.7371 40.7959 31.3069 40.6809 30.9274 40.4624L16.6649 32.2499C16.285 32.0311 15.8541 31.9161 15.4157 31.9164C14.9772 31.9167 14.5465 32.0324 14.1668 32.2517C13.7872 32.4711 13.4719 32.7864 13.2526 33.1661C13.0333 33.5458 12.9177 33.9765 12.9174 34.4149V57.9149C12.9177 58.3529 12.803 58.7833 12.5846 59.163C12.3662 59.5427 12.0519 59.8584 11.6732 60.0784C11.2944 60.2984 10.8645 60.415 10.4265 60.4166C9.98851 60.4182 9.55778 60.3047 9.17745 60.0874L1.26244 55.5624C0.879073 55.3434 0.560532 55.0268 0.339216 54.6448C0.117901 54.2628 0.00170465 53.8289 0.00244492 53.3874L0.0724449 12.3124C0.0733976 11.8745 0.18935 11.4446 0.408696 11.0656C0.628042 10.6866 0.943087 10.3719 1.3223 10.1529C1.70151 9.93392 2.13158 9.81839 2.56948 9.81787C3.00737 9.81735 3.43772 9.93186 3.81744 10.1499L30.9299 25.7224C31.3088 25.94 31.7381 26.0545 32.1749 26.0545C32.6118 26.0545 33.0411 25.94 33.4199 25.7224L60.5249 10.1499C60.9052 9.93155 61.3363 9.81703 61.7748 9.81788C62.2133 9.81873 62.6439 9.93491 63.0233 10.1548C63.4028 10.3746 63.7177 10.6904 63.9365 11.0705C64.1553 11.4505 64.2703 11.8814 64.2699 12.3199V53.4049C64.2701 53.8444 64.1544 54.2762 63.9345 54.6567C63.7146 55.0373 63.3983 55.3531 63.0174 55.5724L48.8224 63.7474C48.4412 63.9672 48.1247 64.2838 47.9049 64.6651C47.6852 65.0464 47.57 65.479 47.571 65.9191C47.572 66.3592 47.6892 66.7912 47.9107 67.1715C48.1322 67.5518 48.4502 67.8669 48.8324 68.0849L56.6624 72.5424C57.0408 72.7579 57.4689 72.8707 57.9044 72.8698C58.3398 72.869 58.7674 72.7544 59.1449 72.5374L75.8574 62.9399V62.9399ZM77.4999 26.0849C77.5003 26.527 77.6179 26.9612 77.8407 27.343C78.0636 27.7249 78.3837 28.0408 78.7684 28.2586C79.1532 28.4764 79.5888 28.5882 80.0309 28.5828C80.473 28.5773 80.9057 28.4547 81.2849 28.2274L88.7849 23.7274C89.1552 23.5056 89.4617 23.1916 89.6746 22.8162C89.8875 22.4407 89.9996 22.0166 89.9999 21.5849V12.4149C89.9992 11.973 89.8812 11.5392 89.6582 11.1577C89.4352 10.7762 89.1151 10.4607 88.7304 10.2432C88.3457 10.0257 87.9102 9.91402 87.4684 9.9196C87.0265 9.92519 86.594 10.0478 86.2149 10.2749L78.7149 14.7749C78.3447 14.9968 78.0382 15.3107 77.8253 15.6862C77.6124 16.0616 77.5003 16.4858 77.4999 16.9174V26.0874V26.0849Z" fill="#007FFF"/>
</svg>
