<svg width="96" height="86" viewBox="0 0 96 86" fill="none" xmlns="http://www.w3.org/2000/svg">
<path d="M48.001 63.7391C21.0792 63.7391 0.000976562 54.5565 0.000976562 42.8696C0.000976562 31.1826 21.0792 22 48.001 22C74.9227 22 96.001 31.1826 96.001 42.8696C96.001 54.5565 74.9227 63.7391 48.001 63.7391ZM48.001 26.1739C21.7053 26.1739 4.17489 34.7304 4.17489 42.8696C4.17489 51.0087 21.7053 59.5652 48.001 59.5652C74.2966 59.5652 91.8271 51.0087 91.8271 42.8696C91.8271 34.7304 74.2966 26.1739 48.001 26.1739Z" fill="#80DEEA"/>
<path d="M29.427 85.8676C27.34 85.8676 25.6705 85.4502 24.0009 84.4067C13.7748 78.5632 16.4879 55.8154 29.8444 32.4415C36.1052 21.5893 43.827 12.4067 51.34 6.56323C59.4792 0.302366 66.7835 -1.57589 71.7922 1.34584C77.0096 4.26758 78.8879 11.5719 77.6357 21.798C76.3835 31.398 72.2096 42.6676 65.9487 53.5198C59.6879 64.3719 51.9661 73.5545 44.4531 79.398C39.027 83.5719 33.8096 85.8676 29.427 85.8676ZM66.5748 4.05889C63.2357 4.05889 58.8531 5.93715 54.0531 9.69367C46.9574 15.3285 39.6531 24.0937 33.6009 34.5285C20.4531 57.2763 19.2009 76.8937 26.0879 80.8589C29.6357 82.9458 35.4792 81.0676 41.9487 76.0589C49.0444 70.4241 56.3487 61.6589 62.4009 51.2241C68.4531 40.7893 72.4183 30.1458 73.6705 21.1719C74.714 12.8241 73.4618 6.98063 69.914 4.89367C68.8705 4.47628 67.827 4.05889 66.5748 4.05889Z" fill="#80DEEA"/>
<path d="M66.7836 85.876C56.3488 85.876 41.3227 73.1455 30.0532 53.3194C16.4879 29.9455 13.7749 7.1977 24.001 1.35422C34.2271 -4.48926 52.5923 9.07596 66.1575 32.4499C72.4184 43.302 76.5923 54.5716 77.8445 64.1716C79.3053 74.3977 77.2184 81.4933 72.001 84.6238C70.3314 85.4586 68.6619 85.876 66.7836 85.876ZM26.0879 4.90205C19.201 8.86727 20.4532 28.4847 33.601 51.2325C46.7488 73.9803 63.0271 84.8325 69.914 80.8673C73.4619 78.7803 74.714 72.9368 73.6706 64.589C72.4184 55.6151 68.4532 44.9716 62.401 34.5368C49.2532 11.789 32.9749 0.936832 26.0879 4.90205Z" fill="#80DEEA"/>
<path d="M48.0009 50.6957C52.6113 50.6957 56.3487 46.9582 56.3487 42.3478C56.3487 37.7374 52.6113 34 48.0009 34C43.3905 34 39.6531 37.7374 39.6531 42.3478C39.6531 46.9582 43.3905 50.6957 48.0009 50.6957Z" fill="#80DEEA"/>
</svg>
