<svg width="97" height="73" viewBox="0 0 97 73" fill="none" xmlns="http://www.w3.org/2000/svg">
<path d="M83.6101 41.6785C80.2629 41.696 77.3538 42.5021 74.9179 43.6938C74.0242 41.9238 73.1304 40.3466 72.9727 39.19C72.7974 37.8406 72.5871 37.0169 72.7974 35.4046C73.0077 33.7924 73.9541 31.4966 73.9365 31.3214C73.919 31.1461 73.7262 30.3225 71.7985 30.305C69.8708 30.2874 68.206 30.673 68.0132 31.1812C67.8204 31.6894 67.4524 32.846 67.2071 34.0377C66.8741 35.7902 63.3516 42.0465 61.3363 45.3236C60.6879 44.0443 60.1271 42.9227 60.0044 42.0289C59.8292 40.6795 59.6189 39.8559 59.8292 38.2436C60.0395 36.6314 60.9858 34.3356 60.9683 34.1604C60.9508 33.9851 60.758 33.1615 58.8303 33.144C56.9026 33.1264 55.2377 33.512 55.045 34.0202C54.8522 34.5284 54.6419 35.7201 54.2388 36.8767C53.8358 38.0333 49.1567 48.478 47.93 51.1768C47.2991 52.5613 46.7558 53.6653 46.3703 54.4189C46.3703 54.4189 46.3527 54.4714 46.3002 54.5591C45.9672 55.2075 45.7744 55.558 45.7744 55.558C45.7744 55.558 45.7744 55.558 45.7744 55.5755C45.5116 56.0487 45.2312 56.4868 45.091 56.4868C44.9858 56.4868 44.7931 55.225 45.126 53.5076C45.827 49.88 47.4919 44.237 47.4743 44.0443C47.4743 43.9391 47.7898 42.9577 46.3878 42.4495C45.0209 41.9413 44.5302 42.7825 44.4075 42.7825C44.2848 42.7825 44.1972 43.0804 44.1972 43.0804C44.1972 43.0804 45.7219 36.7365 41.2881 36.7365C38.5192 36.7365 34.6989 39.7683 32.8062 42.5021C31.6145 43.1505 29.0735 44.535 26.3571 46.0246C25.3232 46.6029 24.2542 47.1812 23.2553 47.7244C23.1852 47.6544 23.1151 47.5667 23.045 47.4966C17.6824 41.7661 7.76349 37.7179 8.18408 30.0246C8.3418 27.2206 9.30566 19.8603 27.2334 10.9227C41.9891 3.64998 53.7306 5.66531 55.7635 10.1341C58.6726 16.5131 49.4721 28.3597 34.2257 30.0771C28.4075 30.7256 25.3582 28.4824 24.5871 27.6412C23.781 26.765 23.6583 26.7124 23.3604 26.8877C22.8697 27.1505 23.1852 27.9391 23.3604 28.3948C23.8161 29.5864 25.6912 31.6894 28.8632 32.7234C31.6671 33.6346 38.4842 34.1429 46.7383 30.9534C55.9738 27.3783 63.1939 17.4419 61.0734 9.11767C58.953 0.670789 44.9333 -2.11563 31.6671 2.5985C23.781 5.40244 15.229 9.81865 9.07784 15.5667C1.77006 22.4013 0.613438 28.3422 1.0866 30.8307C2.78649 39.6631 14.9661 45.4112 19.838 49.6697C19.5926 49.8099 19.3648 49.9326 19.172 50.0377C16.7361 51.2469 7.44805 56.1012 5.1348 61.236C2.5061 67.0541 5.55539 71.225 7.57072 71.7858C13.827 73.5207 20.2586 70.4013 23.7109 65.2491C27.1633 60.0968 26.7427 53.4024 25.1479 50.3356C25.1304 50.3006 25.1129 50.2655 25.0778 50.2305C25.7087 49.8625 26.3571 49.4769 26.988 49.1089C28.2323 48.3729 29.459 47.6894 30.5105 47.1286C29.9146 48.7584 29.4765 50.7036 29.2662 53.5076C29.0034 56.8022 30.3528 61.0782 32.1227 62.7606C32.9114 63.4966 33.8402 63.5142 34.436 63.5142C36.5039 63.5142 37.4327 61.7967 38.4667 59.7639C39.7284 57.2754 40.8675 54.3838 40.8675 54.3838C40.8675 54.3838 39.448 62.1998 43.3035 62.1998C44.7054 62.1998 46.1249 60.3772 46.7558 59.4484C46.7558 59.466 46.7558 59.466 46.7558 59.466C46.7558 59.466 46.7909 59.4134 46.861 59.2907C47.0012 59.0629 47.0888 58.9227 47.0888 58.9227C47.0888 58.9227 47.0888 58.9052 47.0888 58.8876C47.6496 57.9063 48.9113 55.6806 50.7865 51.9829C53.2049 47.2162 55.5357 41.2579 55.5357 41.2579C55.5357 41.2579 55.746 42.7124 56.4645 45.1308C56.8851 46.5503 57.7613 48.11 58.4623 49.6171C57.9015 50.4057 57.551 50.8438 57.551 50.8438C57.551 50.8438 57.551 50.8438 57.5685 50.8614C57.1129 51.4572 56.6222 52.1056 56.0789 52.7365C54.1687 55.0147 51.8905 57.6259 51.5751 58.3794C51.2071 59.2732 51.2947 59.9216 51.9957 60.4473C52.5039 60.8329 53.4152 60.8855 54.344 60.8329C56.0614 60.7102 57.2706 60.2896 57.8664 60.0268C58.7952 59.6938 59.8818 59.1856 60.8982 58.432C62.7733 57.0476 63.9124 55.0673 63.8073 52.4561C63.7547 51.0191 63.2816 49.5821 62.7032 48.2327C62.8785 47.9873 63.0362 47.742 63.2115 47.4966C66.1731 43.168 68.4688 38.4189 68.4688 38.4189C68.4688 38.4189 68.6791 39.8734 69.3976 42.2918C69.7481 43.5185 70.4667 44.8504 71.0975 46.1472C68.3111 48.4079 66.5937 51.0366 65.9803 52.754C64.8763 55.9435 65.735 57.3805 67.3648 57.7135C68.1008 57.8712 69.1523 57.5207 69.9234 57.1878C70.9048 56.8723 72.0614 56.329 73.1654 55.5229C75.0406 54.1385 76.8456 52.2108 76.7405 49.5996C76.6879 48.4079 76.3725 47.2338 75.9343 46.0947C78.3002 45.1133 81.3495 44.57 85.2399 45.0257C93.5817 46.007 95.229 51.2119 94.9135 53.4024C94.5981 55.593 92.8456 56.7847 92.2673 57.1527C91.689 57.5207 91.4962 57.6434 91.5488 57.9063C91.6189 58.2918 91.8993 58.2743 92.39 58.2042C93.0734 58.0815 96.7711 56.4342 96.9289 52.4035C97.1917 47.2513 92.2848 41.6259 83.6101 41.6785ZM19.2597 63.374C16.4908 66.3882 12.6353 67.5273 10.9705 66.5634C9.18299 65.5295 9.88397 61.0782 13.2838 57.8887C15.3517 55.9435 18.0154 54.1385 19.7854 53.0344C20.1885 52.7891 20.7843 52.4386 21.5028 52.0005C21.6255 51.9304 21.6956 51.8953 21.6956 51.8953C21.8358 51.8077 21.976 51.7201 22.1162 51.6324C23.3604 56.1889 22.1687 60.202 19.2597 63.374ZM39.413 49.6697C38.4491 52.018 36.4338 58.0289 35.2071 57.696C34.1556 57.4156 33.5072 52.8592 34.9968 48.3553C35.7503 46.0947 37.3451 43.3959 38.2739 42.3444C39.781 40.662 41.4459 40.1012 41.8489 40.7847C42.3571 41.6785 40.0088 48.1976 39.413 49.6697ZM56.0439 57.6259C55.6408 57.8362 55.2553 57.9764 55.08 57.8712C54.9573 57.8011 55.2553 57.5207 55.2553 57.5207C55.2553 57.5207 57.3407 55.2776 58.1644 54.2611C58.6375 53.6653 59.1983 52.9643 59.7941 52.1757C59.7941 52.2458 59.7941 52.3334 59.7941 52.4035C59.7941 55.0848 57.2005 56.8898 56.0439 57.6259ZM68.8719 54.6993C68.574 54.489 68.6266 53.788 69.6255 51.5974C70.011 50.7387 70.9223 49.3017 72.482 47.9172C72.6572 48.478 72.7799 49.0213 72.7624 49.5295C72.7449 52.9117 70.3265 54.1735 68.8719 54.6993Z" fill="#CD6799"/>
</svg>
