<svg width="49" height="48" viewBox="0 0 49 48" fill="none" xmlns="http://www.w3.org/2000/svg">
<ellipse cx="24" cy="24" rx="23.5" ry="23.5" fill="white"/>
<path d="M3.41113 23.9996C3.41113 32.1491 8.14716 39.1918 15.0148 42.5293L5.19366 15.6206C4.05127 18.1812 3.41113 21.0148 3.41113 23.9996V23.9996Z" fill="#0073AA"/>
<path d="M37.8991 22.9606C37.8991 20.4161 36.9852 18.654 36.2012 17.2824C35.1576 15.5864 34.1794 14.1502 34.1794 12.4543C34.1794 10.5617 35.6148 8.79993 37.6367 8.79993C37.7279 8.79993 37.8145 8.81129 37.9035 8.81639C34.2405 5.46054 29.3603 3.41162 24.0002 3.41162C16.8074 3.41162 10.4793 7.10203 6.79785 12.6917C7.2809 12.7062 7.73612 12.7164 8.12279 12.7164C10.2763 12.7164 13.6098 12.4551 13.6098 12.4551C14.7197 12.3897 14.8505 14.0198 13.7419 14.151C13.7419 14.151 12.6265 14.2823 11.3854 14.3473L18.883 36.6484L23.3886 23.1353L20.1809 14.3465C19.0722 14.2815 18.0219 14.1502 18.0219 14.1502C16.9124 14.0852 17.0425 12.3889 18.1519 12.4543C18.1519 12.4543 21.552 12.7156 23.5751 12.7156C25.7282 12.7156 29.0621 12.4543 29.0621 12.4543C30.1728 12.3889 30.3032 14.019 29.1942 14.1502C29.1942 14.1502 28.0765 14.2815 26.8377 14.3465L34.2781 36.4788L36.3317 29.6163C37.2218 26.7685 37.8991 24.7232 37.8991 22.9606V22.9606Z" fill="#0073AA"/>
<path d="M24.3609 25.8003L18.1836 43.7505C20.028 44.2927 21.9786 44.5893 23.9997 44.5893C26.3973 44.5893 28.6966 44.1748 30.8368 43.4222C30.7815 43.334 30.7314 43.2404 30.6902 43.1386L24.3609 25.8003Z" fill="#0073AA"/>
<path d="M42.0664 14.1216C42.1549 14.7774 42.205 15.4814 42.205 16.2387C42.205 18.3279 41.8149 20.6766 40.6396 23.6132L34.3506 41.7961C40.4715 38.2268 44.5885 31.5954 44.5885 23.9999C44.5889 20.4204 43.6746 17.0543 42.0664 14.1216V14.1216Z" fill="#0073AA"/>
<path d="M24.0002 0C10.7668 0 0 10.766 0 23.9994C0 37.2343 10.7668 48 24.0002 48C37.2332 48 48.0016 37.2343 48.0016 23.9994C48.0012 10.766 37.2332 0 24.0002 0ZM24.0002 46.8999C11.3737 46.8999 1.10046 36.6267 1.10046 23.9994C1.10046 11.3729 11.3733 1.10046 24.0002 1.10046C36.6263 1.10046 46.8988 11.3729 46.8988 23.9994C46.8988 36.6267 36.6263 46.8999 24.0002 46.8999Z" fill="#0073AA"/>
</svg>
